<?xml version="1.0" encoding="utf-8"?>
<!-- Generator: Adobe Illustrator 21.0.2, SVG Export Plug-In . SVG Version: 6.00 Build 0)  -->
<svg version="1.1" id="Layer_1" xmlns="http://www.w3.org/2000/svg" xmlns:xlink="http://www.w3.org/1999/xlink" x="0px" y="0px"
	 viewBox="0 0 528.2 197.5" style="enable-background:new 0 0 528.2 197.5;" xml:space="preserve">
<style type="text/css">
	.st0{fill:#0E0E11;}
	.st1{fill:#FFFFFF;}
	.st2{fill:none;stroke:#000000;stroke-miterlimit:10;}
</style>
<g>
	<path class="st0" d="M525.8,65.1l-8.4-5.7c-6-4.1-10.5-9.5-13.1-15.6c-1.6-3.8-5.6-9.1-15-13c-3.5-1.4-7.4-2.4-11.6-3
		c-14.4-2-32.2-15.4-32.4-15.5l-0.2-0.1l-0.2,0.2c-0.8,0.9-1.5,2.4-1.9,4.6c-3.1-1.7-6.1-3.5-8.9-5.5l-0.2-0.2l-0.1,0.3
		c0,0.1-3.3,6.3-0.7,17c0-0.2-0.8-0.6-1-0.7c-0.5-0.3-1-0.6-1.5-0.9c-1.4-0.8-2.9-1.6-4.4-2.3c-2.1-0.9-4.3-1.7-6.5-2.3
		c-2.8-0.8-5.7-1.4-8.6-1.9c-3.6-0.5-7.2-0.8-10.9-0.9c-2.6,0-5.2,0-7.7,0.2c-3.6,0.2-7.3,1-11,0.8c-1.6-0.1-3.2-0.3-4.8-0.7
		c-0.8-0.2-1.6-0.4-2.4-0.7c-0.3-0.1-0.9-0.4-1.2-0.4c-0.4,0,0,0.5,0.1,0.7c0.2,0.4,0.4,0.7,0.6,1.1c0.2,0.5,0.5,1,0.7,1.5
		c-13,2.6-27.4,7.2-43,14c-0.4,0.1-37.1,14.3-74.8,10.6c-13.6-1.3-27.3,0.5-39.6,5.3c-6.1,2.4-11.8,5.6-17.3,8.8
		c-7.4,4.2-15,8.5-23.6,10.8c-9.7,2.6-19.4,3.8-28.7,3.4c-26.3-1-50.5-14.8-68.2-38.9c-0.8-1.1-1.7-2.4-2.6-3.6
		C69.1,21.2,61.7,11.3,49.9,5C34.7-3.1,16-0.7,1.1,11.2l-0.4,0.4l0.6,0.1c0.9,0.1,2.1,0.4,3.2,1c8.3,4.2,14.5,10.6,18.5,18.8
		c4.8,10.1,8.6,20.7,13.4,30.9c1.3,2.9,2.1,6.1,2.8,9.2l2.4-2.7c2.8,3.5,5.8,6.9,9.1,10.2c18.3,18.1,41.1,28,64.4,28
		c0.1,0,0.2,0,0.3,0c10.1,0,20.5-1.9,30.8-5.5c5.6-2,11.3-4.5,16.9-7.5c2.9-1.5,5.8-3.3,8.8-5.1c0.6-0.4,1.4-0.8,2.2-1.2
		c1.6-0.9,3.5-1.9,4.9-3c-2,3.6-3.5,7.3-4.5,11c-2.7,9.6-8.4,18.4-15.9,24.7c-3.9,3.2-8.4,5.9-13,7.7c-2.5,0.9-5,1.7-7.5,2.1
		c-0.5,0.1-1,0.1-1.6,0.2c-2,0.2-4.6,0.4-5.4,2.4c-0.3,0.7-0.2,1.6-0.1,2.3c0.1,0.8,0.2,1.6,0.3,2.5c0.4,2.8,0.7,5.7,0.3,8.5
		c-0.7,5.1-4,9-7.1,12.7l-0.4,0.5c-3.6,4.3-8,8.2-13.1,11.5c-1.3,0.9-2.9,1.7-4.5,2.6c-7.3,4.1-16.4,9.1-13.8,19
		c0.4,1.5,1.3,2.8,2.4,3.7c1.3,0.9,3,1.3,4.8,1.3c7.9,0,18.8-7.7,20.3-8.8c7.6-5.5,13.6-12.7,19-19.6c10.7-13.7,24.4-23.8,38.8-28.5
		c5.1-1.7,10.3-2.5,15.4-3.3c8.2-1.3,16.7-2.7,24.4-7.7c4.2-2.7,7.6-6.1,10.1-10.1c6.4-10.2,18.6-16.4,34.2-17.6
		c13.5-1,28.6,2,39.4,7.8c9.9,5.3,20.1,8.7,30.3,10.1c2.5,0.3,5.1,0.6,7.6,0.7c2.8,0.1,5.5,0.1,7.9-0.1c5.1,0,10.3-0.3,15.5-0.8
		c0.3,0,0.7,0,1,0l0.4,0c2.4,5.5,7.9,9.2,13.9,9.3l47.3,1.2c9.3,0,18.5,0,27.8,0c0,0,0,0,0.1,0c10.3,0,19,7.3,21.1,17.8
		c0.7,3.5,2.3,6.6,4.7,9.2l0.3,0.3c2.2,2.3,5.4,3.3,8.6,2.6c3.1-0.7,5.5-2.9,6.5-5.8c2-6.2,0.9-12.2-3.3-17.9l-11.2-12
		c-5.4-5.8-12.7-9.6-20.6-10.6l-40.3-5.1c7.8-3.1,15.1-6.9,21.5-11.2c4-2.7,7.5-5.3,10.6-8.2c0,0,0.9,3.1,0.9,3.1
		c-0.1-0.2,0.3-1,0.4-1.3c0.2-0.5,0.3-0.9,0.5-1.4c2-4.9,5.8-9,9.9-12.3c3.3-2.6,7.1-4.5,11-5.3c2.5-0.5,5-0.7,7.5-0.4
		c3.7,0.4,7.1,1.4,10.2,3c4.6,2.4,8.6,4.5,11.8,6.3c3.5,1.9,7.8,1.8,11.2-0.3l11-6.8c1.4-0.9,2.3-2.4,2.4-4.1
		C528,67.6,527.2,66,525.8,65.1z"/>
	<g>
		<line x1="41.4" y1="68.7" x2="43.6" y2="66.3"/>
		<polygon class="st1" points="41.6,68.9 41.3,68.6 43.4,66.1 43.8,66.4 		"/>
	</g>
	<g>
		<line x1="374.6" y1="22.2" x2="376.2" y2="25.4"/>
		<polygon class="st1" points="376,25.5 374.3,22.3 374.8,22 376.4,25.3 		"/>
	</g>
	<g>
		<line x1="451.1" y1="88.8" x2="450" y2="85.2"/>
		<polygon class="st1" points="450.8,88.9 449.7,85.3 450.2,85.1 451.3,88.8 		"/>
	</g>
	<g>
		<path d="M364.1,119.3c0,0-1.8-4.2-2.7-10.2"/>
		<path class="st1" d="M363.8,119.4c0,0-1.8-4.3-2.7-10.2l0.5-0.1c0.9,5.9,2.7,10.1,2.7,10.1L363.8,119.4z"/>
	</g>
	<path class="st1" d="M99.7,197.5c-2,0-3.6-0.5-4.9-1.4c-1.2-0.9-2.1-2.2-2.5-3.8c-2.6-10.1,6.5-15.2,13.9-19.3
		c1.6-0.9,3.1-1.8,4.5-2.6c5.1-3.3,9.5-7.1,13.1-11.4l0.4-0.5c3.1-3.8,6.3-7.6,7.1-12.6c0.4-2.8,0-5.6-0.3-8.4
		c-0.1-0.8-0.2-1.7-0.3-2.5c-0.1-0.7-0.2-1.6,0.2-2.4c0.9-2.1,3.5-2.4,5.6-2.5c0.6,0,1.1-0.1,1.6-0.2c2.5-0.5,5-1.2,7.5-2.1
		c4.6-1.8,9-4.4,12.9-7.6c7.5-6.3,13.1-15,15.8-24.6c1-3.4,2.3-6.8,4-10.1c-1.2,0.8-2.7,1.6-4,2.3l-0.2-0.2l0.1,0.2
		c-0.8,0.4-1.6,0.9-2.1,1.2c-2.9,1.8-5.9,3.6-8.8,5.1c-5.7,3-11.4,5.6-17,7.5c-10.4,3.6-20.8,5.5-30.9,5.5H115
		c-23.3,0-46.3-10-64.6-28.1c-3.2-3.2-6.2-6.5-9-10L38.9,72l-0.1-0.5c-0.6-3-1.4-6.2-2.8-9.2c-2.2-4.7-4.2-9.7-6.2-14.4
		c-2.3-5.4-4.6-11.1-7.2-16.5C18.7,23.3,12.5,17,4.3,12.8C3.2,12.2,2,12,1.1,11.8L0,11.7L0.9,11C15.9-1,34.7-3.4,50,4.8
		c11.9,6.3,19.3,16.3,27.1,27.7c0.9,1.2,1.7,2.5,2.5,3.6c17.7,24.1,41.8,37.8,68,38.8c9.3,0.3,18.9-0.8,28.7-3.4
		c8.6-2.3,16.2-6.6,23.5-10.8c5.5-3.1,11.2-6.4,17.4-8.8c12.3-4.8,26-6.7,39.7-5.3c37.3,3.6,74.3-10.5,74.7-10.6
		c15.4-6.7,29.8-11.4,42.7-14l-1.1-2.3c0,0-0.1-0.1-0.1-0.2c-0.1-0.2-0.3-0.5-0.2-0.7c0-0.1,0.1-0.2,0.4-0.2c0.3,0,0.6,0.1,0.9,0.3
		c0.1,0.1,0.2,0.1,0.3,0.1c0.8,0.3,1.6,0.5,2.4,0.7c1.6,0.4,3.2,0.6,4.7,0.7c2.3,0.1,4.7-0.2,6.9-0.4c1.3-0.2,2.7-0.3,4-0.4
		c2.6-0.2,5.2-0.2,7.8-0.2c3.8,0.1,7.5,0.4,10.9,0.9c3,0.5,5.9,1.1,8.7,1.9c2.3,0.7,4.5,1.5,6.5,2.4c1.6,0.7,3.1,1.5,4.4,2.3
		c0.5,0.3,1,0.6,1.5,0.9c0,0,0.1,0.1,0.2,0.1c0.1,0,0.2,0.1,0.2,0.1c-2.3-10.3,0.7-16.2,0.9-16.4l0.3-0.5l0.5,0.3
		c2.7,1.9,5.6,3.7,8.6,5.3c0.5-2,1.1-3.5,1.9-4.4l0.3-0.3l0.4,0.3c0.2,0.1,17.9,13.5,32.3,15.4c4.2,0.5,8.1,1.5,11.6,3
		c9.5,3.9,13.5,9.3,15.1,13.1c2.6,6.1,7.1,11.4,13.1,15.5l8.4,5.7c1.5,1,2.3,2.7,2.3,4.4c0,1.8-1,3.4-2.5,4.3l-11,6.8
		c-3.5,2.1-7.9,2.3-11.5,0.3c-3.2-1.7-7.2-3.8-11.8-6.3c-3-1.6-6.4-2.6-10.1-3c-2.5-0.3-5-0.1-7.5,0.4c-3.9,0.8-7.7,2.6-10.9,5.2
		c-4.7,3.8-8,7.9-9.8,12.2c-0.2,0.5-0.4,0.9-0.5,1.4c0,0.1-0.1,0.2-0.1,0.3c-0.1,0.2-0.3,0.7-0.3,0.8l0,0c0,0,0,0.1,0,0.1v1.7
		l-0.5-1.6c0,0,0,0,0,0c0-0.1-0.6-1.9-0.8-2.7c-3.1,2.8-6.5,5.4-10.4,7.9c-6.2,4.1-13.2,7.8-20.7,10.8l39.4,5
		c7.9,1,15.3,4.8,20.8,10.7l11.2,12c4.3,5.8,5.5,11.9,3.4,18.2c-1,3-3.5,5.3-6.7,6c-3.2,0.7-6.6-0.3-8.8-2.7l-0.3-0.3
		c-2.4-2.6-4.1-5.8-4.8-9.3c-2.1-10.4-10.7-17.6-20.8-17.6c-9.3,0-18.6,0-27.8,0l-47.3-1.2c-6.1-0.1-11.6-3.8-14.1-9.3l-0.2,0
		c-0.3,0-0.7,0-1,0c-5.2,0.5-10.5,0.8-15.5,0.8c-2.4,0.2-5.1,0.2-7.9,0.1c-2.5-0.1-5.1-0.3-7.6-0.7c-10.3-1.4-20.5-4.9-30.4-10.2
		c-10.8-5.8-25.8-8.8-39.3-7.8c-15.6,1.2-27.7,7.3-34,17.4c-2.5,4-6,7.5-10.2,10.2c-7.8,5-16.3,6.4-24.5,7.7
		c-5.1,0.8-10.3,1.7-15.3,3.3c-14.3,4.7-28,14.8-38.6,28.5c-5.4,7-11.5,14.2-19.1,19.7C118.9,189.6,107.8,197.5,99.7,197.5
		C99.7,197.5,99.7,197.5,99.7,197.5z M179.7,83.7l-0.6,1.1c-1.9,3.5-3.5,7.2-4.5,11c-2.7,9.7-8.4,18.5-16,24.8
		c-3.9,3.3-8.4,5.9-13,7.7c-2.5,1-5,1.7-7.5,2.1c-0.5,0.1-1.1,0.1-1.7,0.2c-2,0.2-4.4,0.4-5.1,2.2c-0.3,0.7-0.2,1.5-0.1,2.1
		c0.1,0.8,0.2,1.6,0.3,2.5c0.4,2.8,0.7,5.7,0.3,8.6c-0.7,5.1-4,9.1-7.2,12.9l-0.4,0.5c-3.6,4.4-8.1,8.2-13.2,11.5
		c-1.3,0.9-2.9,1.7-4.5,2.6c-7.2,4-16.2,9.1-13.7,18.8c0.4,1.5,1.2,2.7,2.3,3.5c1.2,0.9,2.8,1.3,4.6,1.3c0,0,0,0,0,0
		c7.9,0,18.9-7.8,20.1-8.7c7.5-5.5,13.6-12.6,19-19.6c10.7-13.7,24.5-23.9,38.9-28.6c5.1-1.7,10.3-2.5,15.4-3.4
		c8.2-1.3,16.7-2.7,24.3-7.6c4.2-2.7,7.6-6,10.1-10c6.5-10.2,18.7-16.5,34.4-17.7c13.5-1,28.7,2,39.5,7.9c9.8,5.3,20,8.7,30.3,10.1
		c2.5,0.3,5,0.6,7.5,0.7c2.8,0.1,5.4,0.1,7.9-0.1c5.1,0,10.3-0.3,15.5-0.8c0.3,0,0.7,0,1,0l0.6,0l0.1,0.2c2.4,5.4,7.8,9,13.7,9.2
		l47.3,1.2c9.3,0,18.5,0,27.8,0c10.5,0,19.2,7.4,21.4,18c0.7,3.4,2.3,6.5,4.7,9l0.3,0.3c2.2,2.3,5.3,3.2,8.4,2.5
		c3-0.7,5.4-2.8,6.3-5.7c2-6.1,0.9-12-3.3-17.7l-11.2-12c-5.4-5.8-12.6-9.5-20.5-10.5l-41.3-5.2l0.9-0.4c7.8-3.1,15.1-6.9,21.5-11.1
		c4-2.6,7.5-5.3,10.6-8.2l0.3-0.3l0.1,0.4c0.3,1.1,0.6,1.8,0.7,2.3c0-0.1,0.1-0.1,0.1-0.2c0-0.1,0.1-0.2,0.1-0.3
		c0.2-0.5,0.4-0.9,0.5-1.4c1.8-4.4,5.2-8.6,10-12.4c3.3-2.6,7.2-4.5,11.1-5.3c2.5-0.5,5.1-0.7,7.6-0.4c3.7,0.4,7.2,1.4,10.2,3
		c4.6,2.4,8.6,4.5,11.8,6.3c3.4,1.9,7.6,1.7,11-0.3l11-6.8c1.4-0.8,2.2-2.3,2.2-3.9c0-1.6-0.7-3.1-2.1-4h0l-8.4-5.7
		c-6-4.1-10.6-9.5-13.2-15.7c-1.6-3.8-5.5-9-14.8-12.8c-3.5-1.4-7.3-2.4-11.5-2.9c-14.5-2-32.3-15.4-32.5-15.5h0
		c-0.8,0.9-1.4,2.4-1.9,4.5l-0.1,0.3l-0.3-0.2c-3.2-1.7-6.2-3.5-8.9-5.5l0,0c0,0.1-3.2,6.3-0.7,16.8c0,0,0,0,0,0l0,0l0,0l-0.5,0.1
		c-0.1-0.1-0.5-0.3-0.6-0.4c-0.1-0.1-0.2-0.1-0.2-0.1c-0.5-0.3-0.9-0.6-1.4-0.9c-1.3-0.8-2.8-1.5-4.4-2.2c-2-0.9-4.2-1.7-6.5-2.3
		c-2.7-0.8-5.6-1.4-8.6-1.9c-3.5-0.5-7.1-0.8-10.9-0.9c-2.5,0-5.1,0-7.7,0.2c-1.3,0.1-2.7,0.2-4,0.4c-2.3,0.3-4.7,0.6-7,0.4
		c-1.6-0.1-3.2-0.3-4.8-0.7c-0.8-0.2-1.6-0.4-2.4-0.7c-0.1,0-0.2-0.1-0.4-0.2c-0.2-0.1-0.4-0.2-0.6-0.2c0,0.1,0.1,0.1,0.1,0.2
		c0,0.1,0.1,0.1,0.1,0.2l1.4,2.9l-0.3,0.1c-13,2.5-27.4,7.3-42.9,14c-0.4,0.1-37.5,14.3-74.9,10.6c-13.6-1.3-27.2,0.5-39.4,5.3
		c-6.1,2.4-11.8,5.6-17.3,8.7c-7.4,4.2-15,8.5-23.6,10.8c-9.8,2.6-19.5,3.8-28.8,3.4c-26.3-1-50.6-14.8-68.4-39
		c-0.8-1.2-1.7-2.4-2.6-3.6C68.9,21.4,61.5,11.5,49.7,5.2c-15.1-8-33.7-5.7-48.5,6.1c0.9,0.1,2.2,0.4,3.3,1
		c8.4,4.3,14.6,10.6,18.6,18.9c2.6,5.4,4.9,11.1,7.2,16.5c2,4.7,4,9.6,6.2,14.4c1.3,2.8,2.1,5.9,2.7,8.8l2.3-2.6l0.2,0.2
		c2.8,3.6,5.9,7,9.1,10.2c18.2,18,41,28,64.3,28h0.3c10.1,0,20.4-1.9,30.8-5.5c5.6-2,11.3-4.5,16.9-7.5c2.9-1.5,5.8-3.3,8.8-5.1
		c0.6-0.4,1.3-0.8,2.2-1.2l0.1,0c1.6-0.9,3.5-1.9,4.8-2.9L179.7,83.7z"/>
	<g>
		<path d="M433.1,28.6c0,0,0.5,2,1.5,4.8"/>
		<path class="st1" d="M434.4,33.4c-1.1-2.8-1.5-4.8-1.5-4.8l0.5-0.1c0,0,0.5,2,1.5,4.7L434.4,33.4z"/>
	</g>
	<path class="st2" d="M266.8,138.4"/>
	<g>
		<path class="st1" d="M234.3,107.5c-0.2,1.4,32-12.4,66.8-4.8c0,0,29.6,8.1,28.1-6.8c0,0-1.6-7.2,3-10.1c0,0-14.1-5.5-24.4-20.5
			c0,0-5-7.1-11.7-10.2c-0.6-0.3-0.6-1.2,0.1-1.4c2.7-0.7,8.1-1.3,15.2,2c2.3,1.1,4.9,2.6,7.6,4.6c0,0,0.3-5-2.2-7
			c-2.5-2,16.7,0.9,28.3,25.4c0,0,2.2,2.4,6.5,3.3c4.9,1.1,9.6,3.2,13.5,6.5c4.4,3.9,9.2,9.2,10.3,14.9c2.1,11.3-3.8,9.5-5.5,10.6
			s4.4,10.2,0.1,18.7c-3.6,7,10.4,13,25.7,15.1c7.2,1,14.3,3.1,20.9,6.3c4.3,2.1,9,4.2,12.2,4.9c2.2,0.5,3.7,2.9,3,5.1
			c-0.5,1.7-2,3.1-5.9,3.1c-9.1-0.1-23.9-11.9-51.7-12.8c-27.8-0.9-61.7-1.9-107.4-17.4c0,0-27.1,18.2-63.3,11.3
			c-1.3-0.3-2.6-0.7-3.9-1.1c-4.3-1.6-16.3-4.8-25.1,4.2c-8.4,8.6-20.8,6.7-26,5.4c-1.9-0.5-3.4-1.9-3.9-3.9
			c-0.3-1.3-0.1-2.6,1.5-3.1c3.7-1.1,18.1,1.8,27.9-10.6c7-8.8,14.7-7,18.5-5.3c2.8,1.3,5.8,1.9,8.8,1.4c6.1-0.9,14.7-4.9,15.5-20.4
			c0.1-1.6,0.3-3.3,0.9-4.8c1.3-3.3,4.3-8,11.5-8.7C232.2,101.5,234.7,104.2,234.3,107.5L234.3,107.5z"/>
		<path class="st0" d="M317,52.8c3.1,0,18.2,5.3,28,25.9c0,0,2.2,2.4,6.5,3.3c4.9,1.1,9.6,3.2,13.5,6.5c4.4,3.9,9.2,9.2,10.3,14.9
			c2.1,11.3-3.8,9.5-5.5,10.6s4.4,10.2,0.1,18.7c-3.6,7,10.4,13,25.7,15.1c7.2,1,14.3,3.1,20.9,6.3c4.3,2.1,9,4.2,12.2,4.9
			c2.2,0.5,3.7,2.9,3,5.1c-0.4,1.7-1.9,3.1-5.7,3.1c-0.1,0-0.1,0-0.2,0c-9.1-0.1-23.9-11.9-51.7-12.8c-27.8-0.9-61.7-1.9-107.4-17.4
			c0,0-19.1,12.8-46.7,12.8c-5.2,0-10.8-0.5-16.6-1.6c-1.3-0.3-2.6-0.7-3.9-1.1c-2-0.8-5.8-1.9-10.2-1.9c-4.8,0-10.3,1.4-14.9,6.1
			c-5.1,5.2-11.5,6.6-17,6.6c-3.7,0-6.9-0.6-9-1.1c-1.9-0.5-3.4-1.9-3.9-3.9c-0.3-1.3-0.1-2.6,1.5-3.1c3.7-1.1,18.1,1.8,27.9-10.6
			c4.1-5.2,8.5-6.7,12.2-6.7c2.5,0,4.8,0.7,6.3,1.4c2.2,1,4.5,1.6,6.8,1.6c0.6,0,1.3,0,1.9-0.1c6.1-0.9,14.7-4.9,15.5-20.4
			c0.1-1.6,0.3-3.3,0.9-4.8c1.3-3.3,4.3-8,11.5-8.7c0.1,0,0.3,0,0.4,0c2.9,0,5.1,2.6,4.7,5.7l0,0.1c0,0.1,0.1,0.1,0.2,0.1
			c2.1,0,20.9-7.2,44.5-7.2c7,0,14.5,0.6,22,2.3c0,0,8,2.2,15.5,2.2c6.9,0,13.3-1.9,12.6-9c0,0-1.6-7.2,3-10.1
			c0,0-14.1-5.5-24.4-20.5c0,0-5-7.1-11.7-10.2c-0.6-0.3-0.6-1.2,0.1-1.4c1.1-0.3,2.6-0.6,4.6-0.6c2.8,0,6.4,0.6,10.6,2.5
			c2.3,1.1,4.9,2.6,7.6,4.6c0,0,0.3-5-2.2-7C316.3,53,316.4,52.8,317,52.8 M317,51.8c-1,0-1.4,0.5-1.5,0.8c-0.1,0.2-0.2,0.9,0.5,1.5
			c1.1,0.9,1.6,2.7,1.7,4.2c-2-1.4-4.1-2.6-6.1-3.5c-3.8-1.7-7.5-2.6-11.1-2.6c-1.7,0-3.3,0.2-4.8,0.6c-0.7,0.2-1.2,0.8-1.2,1.5
			c-0.1,0.7,0.3,1.4,1,1.7c6.4,2.9,11.3,9.8,11.3,9.8c8.5,12.3,19.4,18.3,23.3,20.2c-3.3,3.5-2.2,9.2-2.1,10
			c0.2,2.1-0.2,3.7-1.3,4.9c-1.8,2-5.2,2.9-10.3,2.9c-7.3,0-15.2-2.1-15.3-2.2l0,0l0,0c-7-1.5-14.5-2.3-22.3-2.3
			c-18.4,0-33.6,4.3-40.9,6.3c-1.1,0.3-2.1,0.6-2.8,0.8c-0.1-1.4-0.6-2.6-1.5-3.7c-1.1-1.3-2.7-2-4.3-2c-0.2,0-0.4,0-0.5,0
			c-7.9,0.7-11.1,6.1-12.3,9.3c-0.6,1.5-0.9,3.1-1,5.1c-0.8,14.4-8.4,18.5-14.6,19.4c-0.6,0.1-1.2,0.1-1.8,0.1
			c-2.1,0-4.3-0.5-6.4-1.5c-1.5-0.7-3.9-1.5-6.7-1.5c-4.9,0-9.2,2.4-13,7.1c-7.3,9.3-17.4,9.7-23.3,9.9c-1.8,0.1-3.1,0.1-4.1,0.4
			c-1.9,0.6-2.7,2.1-2.2,4.3c0.5,2.3,2.3,4.1,4.6,4.6c2.1,0.5,5.4,1.2,9.2,1.2c7.3,0,13.3-2.3,17.7-6.9c3.7-3.8,8.5-5.8,14.2-5.8
			c4.3,0,8,1.1,9.8,1.8c1.5,0.6,2.8,0.9,4.1,1.2c5.5,1.1,11.1,1.6,16.7,1.6c25.3,0,43.8-10.9,46.8-12.7
			c45.2,15.2,79.2,16.3,106.5,17.2l0.8,0c17.3,0.6,29.6,5.4,38.5,9c5.4,2.1,9.6,3.8,13.2,3.8l0.2,0c4.6,0,6.2-2.1,6.6-3.8
			c0.4-1.3,0.2-2.8-0.6-4c-0.7-1.2-1.9-2.1-3.2-2.4c-2.6-0.6-6.6-2.2-11.9-4.8c-6.6-3.3-13.8-5.4-21.2-6.4
			c-12.7-1.7-22.7-5.8-24.9-10.2c-0.6-1.2-0.6-2.3,0-3.5c3-5.9,1.3-12,0.3-15.6c-0.3-1.1-0.6-2.3-0.6-2.8c0.2-0.1,0.6-0.2,1-0.3
			c3.2-0.7,6.5-2.2,4.8-11.3c-0.9-5-4.5-10.2-10.6-15.4c-3.8-3.3-8.4-5.5-13.9-6.8c-3.5-0.8-5.5-2.5-5.9-3
			C335.4,56.4,319.7,51.8,317,51.8L317,51.8z"/>
	</g>
	<path class="st2" d="M266.8,138.4"/>
	<path class="st0" d="M267.1,138.2l-0.6-0.8c0,0,2.2-1.9,4.8-4.3l0.7,0.7C269.4,136.3,267.1,138.2,267.1,138.2z"/>
</g>
</svg>
